<svg id="Calque_1" data-name="Calque 1" xmlns="http://www.w3.org/2000/svg" viewBox="0 0 116.48 102.91"><defs><style>.cls-1{fill:#ed9a00;}</style></defs><title>rabies-dog</title><path class="cls-1" d="M49.45,94.93,34.64,110.52c-1.66.61-3.31,2.65-5,1.84-.21.29-.51.53-.38,1h-.84c.2-2.46,3.42-.8,3.3-3.22,2-1.55,1.31-4.34,2.07-6.47,1.23-1.55,1.61-3.35,3.69-4.58.08-5.48,6.13-6.61,9.48-9.16,2.12-1.14,3.85-3.21,6.18-3.68.21,3.58-1.66,6.19-3.73,8.73M126.24,82l.44-.48c.54-.8.94-2.64-.44-3.21l.44-.42c-1.57-.71-.71-2.5-2.19-3.26l-.45.47c-.76,0-1.16-.89-1.7-1.37l.85-.89c-.49-1.75.94-3.73.45-6,.58-1.09.49-2.83,1.74-3.21V62.3a27.91,27.91,0,0,0,.86-5.06l-.45-.47.45-.47a84.92,84.92,0,0,0-6.09-15.16C110,30,93.14,27.73,80.05,32.4l-12.22.94A4.91,4.91,0,0,0,63.93,32l-.45.42c-4.08-2.6-7.75-6.19-12.18-7.8-3.1-3.53-6.14-4.29-9.59-6.89-2.69,3.21-6.41-.47-9.59,1.37-1.43,2.08-5.37.66-5.23,3.69-1.08,1.74-2.74,2-4.4,2.31-1.87.8-4.88.28-6.49.42a16.5,16.5,0,0,1-4.39.95c-2.46,2.74.94,5.24.45,8.27C13.67,34,14.52,36.32,16,37c-.76.9-1.93,1.6-2.19,2.74,1.56.8.31,3.69,2.59,4.58l.45-.42c.27.23.45.56.85.42l10.93-.42.41.42.44-.42,2.64,2.26c-.62,5.2,7.17,5.48,5.65,11.05,3.18,3.55,2.47,8.84,5.64,12.38-.94,3.91,3.14,5.24,4.39,7.37C43.9,83.55,37.32,85.34,33,91.68L29,103.2c-2.65,3.36-5.74,6.52-6.95,10.53l2.6,1c-1.3,1.51-2.24,1.93-3.05,3.68,2.78.75,5.25,2.22,8.29,2.26,2.73-1.08,6.86.48,8.69-1.84l-.4-.42,2.15-1.84c.63.85,1.75.28,2.64.48,1.34-4.11,5.69-6.48,8.29-9.22L71.77,90.3l-.45-.42c1.48-2.31-1-4.63.45-6.9,4-.38,7.3-2.83,11.32-3.26.55,0,.42,1.66.46.48.22-.24.45-.62.85-.48.9,2.46,2.19,4.73,2.6,7.37l.45-.47c2.55,4.72,6,9,5.24,15.21-.31,3.69-4.26,3.78-6.1,6.42-1.52.67-3.4,1.84-4.79,1.37-3-.09-6.27,1.37-7.43,4.11,1.88,1.18,3.22-.42,4.79,1.42H84c3.09,1.6,5.69-.71,7.84-2.79l-.41-.42c1.22-.15,1.66-2.22,3.05-1.85,2.6-3.4,7.08-5.94,7.84-10.1-2.1-2.7-1.88-6.33-3.49-9.22-1.26-2,.62-4.3,0-6,.13-.94-.36-2.12.45-2.78.76-.29,1.07.56,1.74.47l.85-1.84c.27.28.59.47.45.89,1.17-.51,1.21.9,1.75,1.42l.45-.47c2.68,1,3.58,3.54,6.09,5.06l-.45.47c2,2.31,4.48,2.41,6.54,5.48.76,3.25,1.3,7.18.44,10.57-1,2.32-3.44,2.79-3.49,5.53h.45c.31,2.93-1.57,6-.89,9.63,2.73.9,5-1.55,6.53-1.36,1.4-2.79,2.79-5.58,2.2-9.21.27-6.05,5.38-10.54,3.49-17-3.49-2,1-4.53.41-6.43l.45-.43-.45-.47c.26-.28.49-.61.89-.47-.13-.61.36-1.51-.44-1.84" transform="translate(-10.71 -17.71)"/></svg>
