<svg id="Calque_1" data-name="Calque 1" xmlns="http://www.w3.org/2000/svg" viewBox="0 0 67.86 110.59"><defs><style>.cls-1{fill:#ad8f84;}.cls-2{fill:#6f3f33;}.cls-3{fill:#9a271b;}</style></defs><title>rabies-kid</title><path class="cls-1" d="M86.78,103.48a4.54,4.54,0,0,0-.35,1.15,24.69,24.69,0,0,0-.46,4c.12,1.26.69,6.75.81,8.82s1.49,4.92.68,5-6.53,1.37-7,1.83-3.78.11-5.39,0-6.07.57-8.59.57a68.16,68.16,0,0,0-8.7,1.26c-10.54-3.09-14.89-2-15.12-3.44s1.26-4.81,1.71-6.64,1.84-3.78,1.84-5.15.23-4.47.23-4.47c-.05-.23-.09-.46-.13-.69a38.13,38.13,0,0,1-.56-11.11l-.46-11.8L39.7,80.8c-4-2.06-4.47-3.55-4.47-3.55l5.39-6.64h-.81l3.55-7.1A6.57,6.57,0,0,1,45.2,60.3c1.71-1.95,4.69-1.95,6.18-2.29a30.79,30.79,0,0,0,5.16-2.18c.34-.23,2.52.12,3-.23s0-1.37-.11-2.63a1.5,1.5,0,0,1,.92-1.61l.45.23A7.87,7.87,0,0,1,64,56.29c.46,1.14,4.81,4.7,5.39,4.58s2.52-5.5,2.52-6.07,3.09-4,3.09-4c0,.46.91,0,1.26,0A4.8,4.8,0,0,1,78,52.17c.23.34.68.45.8.8a1.26,1.26,0,0,0,.46.57,5.51,5.51,0,0,1,1.83.46,8.8,8.8,0,0,0,3.43.23c1,0,2.3-.12,2.3-.12l1.14,1s1.61.58,2.64,1,2.86,4.13,2.86,4.13L95,62.59l1.84,4c4.58,6.3,5.84,6.64,6.18,6.87s-1.37,2-1.6,2.52-6.65,3.67-6.65,3.67l-7.1,2.74Z" transform="translate(-35.23 -15.57)"/><path class="cls-2" d="M60.09,48.5c-.3-1-2-2.52-2.18-2.86s-.8-3.67-1.14-4.59,0,0-.23.46-1.15.35-1.49.23S53.9,40,53.67,39.68a23.91,23.91,0,0,1-.57-4c0-.34-.46-1.37,0-2.06s1.37-.12,1.49.23.69.23,1.15.34-.58-2.4-.58-2.4.23-4.13.46-6a15.26,15.26,0,0,1,2.06-5.15,18.72,18.72,0,0,1,5.84-3.78c3.67-1.61,6.07-1.72,9-.46s2.18,1.37,3.78,2.63a14.29,14.29,0,0,1,4,5.5,26.89,26.89,0,0,1,.12,5.27c0,1.15-1.26,4.16-.92,4.73s.46-.15,1.37-.61,1.54,1.09,1.15,2.29-.46,1.38-.57,1.72a4.73,4.73,0,0,0-.35,1.38,8.4,8.4,0,0,1-.8,1.94s-.91,1.49-1.49,1.49-1.14-.68-1.14-.68A12.06,12.06,0,0,0,76.58,45a14.76,14.76,0,0,1-1.37,3.21,12.76,12.76,0,0,0-.12,2.69c.17.4-2,1.66-2.63,3.38s-2.69,6.12-2.92,6.47-4.64-3.15-5.21-4.12-.12-1.21-.52-1.9a19.2,19.2,0,0,0-3-3.26.46.46,0,0,1-.34-.34,10.34,10.34,0,0,0-.4-2.58" transform="translate(-35.23 -15.57)"/><path class="cls-2" d="M93.88,74.62s-.34,18.09,0,18.78-.12,4.35-1.6,5.61-10.77,8.82-13.41,10.43-8.47,3.78-8.93,4.12A29.23,29.23,0,0,1,65.36,116,8.47,8.47,0,0,1,64.15,118c-.46.34-1.89,2.81-4.23,4.64a22.58,22.58,0,0,0-2.12,1.2,14.91,14.91,0,0,1-1.72,1.2c-.23.12-1.43.35-1.66-.06s-.46-1.2-.23-1.31-.75.28-1.15.17-2.17-1.2-1.37-2c0,0-2.46-.06-1.78-2.41,0,0-1.66.34-2.29-.17a1.4,1.4,0,0,1,.29-2.41,13.07,13.07,0,0,0,3-2.29c0-.17.18-.86,2.07-1.6a9.33,9.33,0,0,1,4.06-1.89l2.52-.52a29.21,29.21,0,0,1,3.32-2.06c1.49-.74,6.59-3.72,6.59-3.72l4.87-3.21s9.16-8.82,9.91-9.56S84,88.65,84,88.65a22.41,22.41,0,0,1-.23-6.07c.34-3.15.06-3.44.06-3.44a2.57,2.57,0,0,0,.17-.51c.06-.29,1.83-1.32,2.35-1.72s.91-1.49,2.74-1a13.54,13.54,0,0,1,2.35-1c.4,0,2.41-.23,2.41-.23" transform="translate(-35.23 -15.57)"/><path class="cls-2" d="M63.07,61.21a31.78,31.78,0,0,0,3.43-2.63c.29-.46,2.18-1,3.27-.92a8.66,8.66,0,0,1,3.2.63c.69.41,1.66,1.26,1.32,1.66s.12,1.32-2.75.35c0,0-2.12.34-2.23.34s-1.55.69-1.55.69l2.18-.52a27,27,0,0,1,4.35.52,6,6,0,0,1,1.66.8c.17.29,1.49.52.69,1.83,0,0-.46.92-2.12-.05a21.77,21.77,0,0,1-2.58-.06c-.4-.12,2.24.46,2.24.46l1.49.51s1.31,1.21-.81,2l-2-.29c-.86-.11-2.29.23-3.27-.17,0,0-2.57.4-2.8.8a8.26,8.26,0,0,1,1.77,0,34.91,34.91,0,0,1,4.07,1c.57.23.8,1.66-.46,1.61s-2.8-.17-3.43-.17a15.26,15.26,0,0,0-3,.85c-.46.18-2.18.86-3.15,1.27s-4.53,2.17-4.93,1.83-1.77,1.2-1.89,2.06-3.55,6-5.73,12.77c0,0-4.69,7.91-7.67,9.34s-5.78-6.36-5.78-6.36S36,87.62,37.81,85s2.06-3.44,2-3.72,2,.63,2,.63l.34,0a33.48,33.48,0,0,0,4.24-5c2.23-3.15,3.72-5,3.72-5.32a30.46,30.46,0,0,1,2.24-3.5s2.12-1.6,3.37-2.4,3.44-2.47,3.44-2.47a10.14,10.14,0,0,1,2.69-1.77,5.12,5.12,0,0,0,1.21-.35" transform="translate(-35.23 -15.57)"/><path class="cls-3" d="M47.73,78.33a2.08,2.08,0,0,0-.22.42,4.83,4.83,0,0,1,.33-.75c.17-.4-.1.14-.24.47l.19-.51.08-.11c.31-.66-.12.18.23-.59v.08l.1-.22c-.1.24,0,.15,0,.06a3.16,3.16,0,0,0,.13-.31c.08,0-.53,1.17-.6,1.4,0,0,0,0,0,.06" transform="translate(-35.23 -15.57)"/><path class="cls-3" d="M48.53,76.73l-.37.83.13-.2c-.14.29-.23.53-.36.78L48,78c-.3.62-.11.32-.42,1a2.86,2.86,0,0,1,.21-.55,2.42,2.42,0,0,0-.24.4c0-.09.21-.47.24-.55v0l.44-.93c-.09.2,0,.11,0,.13l.48-1.1a4.36,4.36,0,0,1,.4-.7c-.39.78-.17.4-.51,1" transform="translate(-35.23 -15.57)"/><polyline class="cls-3" points="12.53 62.7 12.53 62.7 12.53 62.7"/><path class="cls-3" d="M47.65,84.86s-.11.24-.16.35l-.07,0c.12-.25.29-.54.34-.69s.05,0-.11.3l.17-.37c-.2.48.25-.45.37-.74h0l-.82,1.86c-.07.1.29-.64.28-.67" transform="translate(-35.23 -15.57)"/><path class="cls-3" d="M49.7,84.69l.12-.27c0,.07-.06.15-.12.27" transform="translate(-35.23 -15.57)"/><path class="cls-3" d="M47.18,86l-.26.58.26-.58" transform="translate(-35.23 -15.57)"/><path class="cls-3" d="M51.22,77.16a.93.93,0,0,1,.05-.1l-.14.3.09-.2" transform="translate(-35.23 -15.57)"/><path class="cls-3" d="M46.51,88.3a.06.06,0,0,1,0,0,.1.1,0,0,1,0,0" transform="translate(-35.23 -15.57)"/><path class="cls-3" d="M52.56,73.77l-.22.57c.12-.26.1-.18.23-.49a1.26,1.26,0,0,1-.12.29v0c-.34.77-.49,1.06-.73,1.66-.24.44,0,0,.1-.33,0-.06,0-.08,0-.11l.47-1.08Z" transform="translate(-35.23 -15.57)"/><path class="cls-3" d="M51.27,80.12l0-.06,0,.06" transform="translate(-35.23 -15.57)"/><path class="cls-3" d="M51.41,79.82l-.11.24c.06-.12.11-.24.11-.24" transform="translate(-35.23 -15.57)"/><path class="cls-3" d="M47.41,85.47c-.07.14-.15.32-.23.5l.19-.44,0-.06" transform="translate(-35.23 -15.57)"/><path class="cls-3" d="M48.17,83.79l0-.12.18-.4c-.06.15-.09.26-.2.52" transform="translate(-35.23 -15.57)"/><path class="cls-3" d="M46.25,88.73a11.86,11.86,0,0,0,.54-1.11c0,.11-.22.54-.28.68.13-.39-.66,1.41-.6,1.16-.36.78-.36.86-.25.66.38-.74.25-.56.59-1.29,0,.13-.11.27-.3.69.12-.16-.37.94.14-.08-.05.17-.22.53-.4.93-.37.79-.23.4-.53,1l.15-.31-.1.16a8,8,0,0,0,.39-.87s0-.06-.09.16l-.07.18c-.14.25.24-.6,0-.17l-.17.38c.24-.56.21-.53.37-.93l-.36.8c.39-.89.23-.66,0-.21.07-.13.12-.22.19-.38s-.2.34-.39.76c.29-.66-.33.52.05-.34l1.79-4.07c0,.11-.07.19-.09.23.34-.69.31-.61.6-1.27-.16.38-.43.93-.42,1,.16-.35.53-1.15.6-1.22C47.34,86,46.45,88,46,89c.25-.54.23-.36.31-.48a9,9,0,0,0,.36-.87l.08-.06Z" transform="translate(-35.23 -15.57)"/><path class="cls-3" d="M47,86.87l0-.1a.93.93,0,0,0,0,.1" transform="translate(-35.23 -15.57)"/><path class="cls-3" d="M46.69,87.67a.33.33,0,0,0,0-.06l0,0h0" transform="translate(-35.23 -15.57)"/><path class="cls-3" d="M48,84.27l.16-.35-.06.14a1,1,0,0,1-.1.21" transform="translate(-35.23 -15.57)"/><path class="cls-3" d="M47.54,85.21l-.1.22,0,0a1.51,1.51,0,0,1,.13-.26" transform="translate(-35.23 -15.57)"/><path class="cls-3" d="M48.77,84l0,.12,0-.12" transform="translate(-35.23 -15.57)"/><path class="cls-3" d="M46.75,87.85c0-.06.38-.79.35-.81l0-.05c.14-.35,0-.21,0-.25-.15.32-.2.38-.43.87a4.46,4.46,0,0,1,.3-.75c-.09.16.11-.3,0-.09.15-.3.46-1,.32-.64L47.4,86c.22-.41-.11.3-.09.32.15-.29.2-.48.27-.6-.11.29.24-.32-.29.79,0,.09.1-.16.2-.36-.53,1.2.34-.46-.37,1.05a1.63,1.63,0,0,1,.12-.37Z" transform="translate(-35.23 -15.57)"/><path class="cls-3" d="M48,84.37s0,0,0,0v0" transform="translate(-35.23 -15.57)"/><path class="cls-3" d="M45.59,88.82l.06-.08c-.08.15-.08.14-.06.08m.07-.21-.46,1c-.06.26.08,0,.11.05.07-.13.1-.22.12-.26,0,.13.12-.06-.07.41a5.29,5.29,0,0,0,.32-.6l-.06.15c.17-.36,0-.11.18-.4,0,0,.05-.09,0,0,.13-.31.57-1.2.53-1.19-.41.82,0,.1-.46,1a4,4,0,0,1,.2-.46,3.87,3.87,0,0,0-.23.45c.13-.28-.07.1.12-.33,0-.09-.32.69-.34.67l.43-.93-.11.15c.11-.34.76-1.59,1-2.14-.22.49-.63,1.29-.74,1.47s-.26.66-.12.39c-.36.71,0,.1-.41.93.18-.4.18-.46.06-.26l0,.09c-.06.09.38-.89.18-.53a3.52,3.52,0,0,0-.22.45c.06-.15.13-.33,0-.13" transform="translate(-35.23 -15.57)"/><path class="cls-3" d="M48.7,77l0,.08s0-.07,0-.08" transform="translate(-35.23 -15.57)"/><path class="cls-3" d="M50.3,77.28l0,0s0,0,0,0" transform="translate(-35.23 -15.57)"/><path class="cls-3" d="M51.54,74.12l.09-.22a2,2,0,0,1-.09.22" transform="translate(-35.23 -15.57)"/><path class="cls-3" d="M48.84,76.94h0a.08.08,0,0,0,0,0Z" transform="translate(-35.23 -15.57)"/><path class="cls-3" d="M50.09,76.09l-.1.2c0-.09.08-.16.1-.2" transform="translate(-35.23 -15.57)"/><path class="cls-3" d="M51.52,74.16v0a.14.14,0,0,1,0-.06Z" transform="translate(-35.23 -15.57)"/><path class="cls-3" d="M51.67,74.62l0,.1a.93.93,0,0,1,0-.1" transform="translate(-35.23 -15.57)"/><path class="cls-3" d="M50.42,77.24l0,.09Z" transform="translate(-35.23 -15.57)"/><path class="cls-3" d="M51.59,75.59l-.05.14a.59.59,0,0,1,.05-.14" transform="translate(-35.23 -15.57)"/><path class="cls-3" d="M50.74,76.65l-.06.13.06-.13" transform="translate(-35.23 -15.57)"/><path class="cls-3" d="M47.11,87.25c0,.08-.07.16-.1.25a2.06,2.06,0,0,1,.1-.25" transform="translate(-35.23 -15.57)"/><path class="cls-3" d="M45.72,90.36c.24-.44.26-.61.39-.8.21-.42.45-1,.33-.77-.19.4-.1.26-.31.67.21-.47.06-.16.35-.76.15-.38.35-.81.53-1.2-.11.27.23-.32-.11.46s-.8,1.71-1.29,2.75c-.12.25-.21.34.11-.35" transform="translate(-35.23 -15.57)"/><path class="cls-3" d="M44.94,87.43c.24-.45.26-.62.39-.8.21-.42.45-1,.33-.77-.19.39-.1.26-.31.66.21-.46.06-.15.35-.75.15-.38.36-.81.53-1.21-.1.28.23-.31-.1.47s-.8,1.7-1.3,2.75c-.12.24-.21.34.11-.35" transform="translate(-35.23 -15.57)"/><path class="cls-3" d="M45.72,87.43c.24-.45.26-.62.39-.8.21-.42.45-1,.33-.77-.19.39-.1.26-.31.66.21-.46.06-.15.35-.75.15-.38.35-.81.53-1.21-.11.28.23-.31-.11.47s-.8,1.7-1.29,2.75c-.12.24-.21.34.11-.35" transform="translate(-35.23 -15.57)"/><path class="cls-3" d="M44.68,88.66c.24-.44.26-.61.39-.79a3.87,3.87,0,0,0,.33-.77c-.19.39-.11.26-.31.66.21-.47,0-.15.34-.75.16-.38.36-.81.53-1.21-.1.28.24-.32-.1.47S45.06,88,44.57,89c-.12.25-.21.34.11-.35" transform="translate(-35.23 -15.57)"/><path class="cls-3" d="M45.2,91.38c0,.05,0,0,0-.08.17-.36,0,.07,0,.08" transform="translate(-35.23 -15.57)"/><path class="cls-3" d="M49.11,83.65c-.06.14-.13.33-.26.59l.06-.2a3.78,3.78,0,0,0,.2-.39" transform="translate(-35.23 -15.57)"/><path class="cls-3" d="M48.94,84l0,.08s0,0,0-.08" transform="translate(-35.23 -15.57)"/><path class="cls-3" d="M49.16,83.55l0,.1,0-.1" transform="translate(-35.23 -15.57)"/><path class="cls-3" d="M53.29,75.74c.14-.28.07-.11,0,0s-.06.11,0,0" transform="translate(-35.23 -15.57)"/><path class="cls-3" d="M53.17,77.06l.11-.23c-.06.14-.1.21-.11.23" transform="translate(-35.23 -15.57)"/><path class="cls-3" d="M49.62,84.93l-.07.14.07-.14" transform="translate(-35.23 -15.57)"/><path class="cls-3" d="M49.55,85.07c-.11.25.09-.12-.08.25l.06-.11-.09.22s0,0,.11-.36" transform="translate(-35.23 -15.57)"/></svg>
