<!DOCTYPE svg PUBLIC "-//W3C//DTD SVG 20010904//EN" "http://www.w3.org/TR/2001/REC-SVG-20010904/DTD/svg10.dtd">
<svg version="1.0" xmlns="http://www.w3.org/2000/svg" width="1200px" height="1004px" viewBox="0 0 12000 10040" preserveAspectRatio="xMidYMid meet">
<g id="layer101" fill="#1b7eb1" stroke="none">
 <path d="M4930 9718 c-30 -5 -85 -13 -122 -19 -38 -6 -68 -14 -68 -17 0 -21 275 -286 380 -367 28 -22 64 -50 78 -62 15 -13 30 -23 34 -23 4 0 13 -6 20 -13 18 -18 110 -82 128 -91 8 -3 35 -20 60 -36 25 -16 70 -43 100 -59 93 -51 94 -53 5 -47 -44 3 -106 11 -137 16 -32 6 -86 15 -120 20 -86 15 -156 30 -203 45 -22 7 -62 18 -90 25 -27 6 -66 18 -85 25 -19 7 -69 23 -110 34 -41 12 -88 26 -105 32 -33 12 -51 17 -165 48 -41 11 -100 27 -130 36 -68 20 -147 35 -325 64 -143 22 -408 29 -596 15 -99 -7 -184 -16 -189 -19 -5 -3 -33 -10 -62 -15 -144 -26 -267 -65 -397 -126 -127 -60 -299 -173 -376 -247 l-40 -39 35 7 c19 4 42 13 51 21 8 8 22 14 30 14 8 0 34 7 59 16 151 53 435 70 631 39 185 -30 298 -52 404 -80 33 -8 80 -20 105 -26 82 -18 114 -26 175 -43 59 -17 111 -29 190 -46 22 -4 83 -17 135 -28 266 -56 593 -92 825 -92 131 0 333 19 435 40 154 32 245 55 340 87 l105 34 70 -21 c39 -12 86 -28 105 -35 48 -18 163 -45 300 -69 269 -48 556 -48 890 0 215 30 329 49 415 70 33 7 103 23 155 35 52 11 115 27 140 35 25 7 86 23 135 34 50 12 115 27 145 35 56 15 109 25 215 44 393 70 655 52 918 -63 20 -9 37 -13 37 -8 0 18 -50 62 -164 140 -106 74 -105 73 -221 131 -163 80 -245 107 -475 154 -138 29 -374 41 -559 28 -264 -18 -392 -41 -691 -122 -41 -11 -93 -25 -115 -30 -22 -6 -44 -14 -49 -20 -6 -5 -17 -9 -25 -9 -17 0 -134 -34 -191 -55 -19 -7 -55 -18 -80 -25 -25 -7 -65 -18 -90 -26 -41 -12 -139 -32 -317 -63 -72 -13 -230 -26 -223 -18 3 2 28 17 55 32 49 27 104 60 157 97 15 10 30 18 34 18 9 0 108 73 112 82 2 5 9 8 15 8 7 0 26 13 44 28 17 15 55 45 83 67 29 22 75 60 103 85 69 60 277 272 277 281 0 4 -33 12 -72 18 -40 7 -101 16 -136 22 -60 9 -64 8 -82 -13 -11 -13 -19 -29 -20 -35 0 -7 -4 -13 -9 -13 -5 0 -12 -9 -16 -20 -3 -11 -21 -37 -38 -59 -18 -21 -45 -56 -62 -76 -96 -120 -280 -276 -404 -342 -51 -28 -117 -61 -141 -70 -87 -36 -111 -44 -162 -57 -51 -13 -65 -13 -115 0 -141 35 -313 122 -463 233 -45 34 -44 33 -136 123 -84 81 -93 91 -139 153 -16 22 -32 42 -35 45 -7 7 -24 34 -58 92 -29 52 -29 52 -122 36z"/>
 <path d="M3799 8780 c-9 -5 -57 -15 -108 -21 -71 -10 -145 -10 -339 -1 -331 16 -590 1 -767 -44 -148 -38 -214 -58 -242 -73 -10 -5 -36 -17 -58 -26 -76 -32 -180 -88 -206 -111 -8 -8 -20 -14 -26 -14 -6 0 -13 -4 -15 -8 -1 -4 -21 -21 -43 -37 -172 -127 -341 -322 -468 -541 -68 -116 -62 -131 21 -52 145 140 342 231 647 298 140 31 234 50 345 70 84 15 196 39 236 51 17 5 40 9 51 9 11 0 56 11 99 25 44 14 97 30 119 36 36 10 129 44 195 71 14 6 43 20 65 31 l40 20 -55 -60 c-138 -150 -206 -244 -273 -378 -67 -134 -102 -241 -136 -420 -36 -183 -56 -264 -86 -330 -12 -27 -26 -61 -30 -74 l-7 -24 29 21 c37 26 285 269 349 342 125 142 195 233 265 346 24 38 50 79 57 90 6 10 16 28 21 39 5 11 27 59 50 107 23 48 41 90 41 93 0 6 36 102 60 160 4 11 25 63 46 115 21 52 46 109 56 125 10 17 21 38 24 48 4 9 10 17 15 17 5 0 9 5 9 12 0 6 11 26 25 44 35 46 33 67 -6 44z"/>
 <path d="M8040 8782 c0 -5 9 -21 20 -35 11 -14 20 -28 20 -31 0 -3 15 -29 33 -58 34 -55 107 -209 107 -228 0 -6 4 -18 9 -28 5 -9 16 -35 24 -57 34 -92 110 -273 127 -305 10 -19 27 -52 37 -72 10 -21 21 -38 25 -38 5 0 8 -4 8 -9 0 -14 132 -204 160 -231 3 -3 23 -27 45 -55 50 -63 92 -108 230 -244 177 -176 219 -214 223 -202 2 7 -6 32 -17 57 -36 76 -53 138 -86 304 -32 162 -49 233 -70 290 -45 122 -59 156 -66 165 -4 6 -22 37 -39 70 -17 33 -35 62 -39 65 -5 3 -15 19 -24 37 -9 17 -22 37 -30 45 -7 7 -26 31 -42 53 -16 22 -34 45 -39 51 -77 76 -127 133 -111 127 11 -5 40 -18 65 -29 64 -30 99 -44 150 -60 25 -8 54 -19 65 -24 24 -10 188 -54 265 -70 30 -7 82 -18 115 -25 33 -8 89 -19 125 -25 81 -14 145 -27 235 -46 183 -40 216 -48 312 -80 39 -13 76 -24 82 -24 12 0 203 -91 235 -112 11 -7 29 -21 40 -30 11 -10 23 -18 27 -18 3 0 24 -16 45 -35 21 -19 42 -35 46 -35 4 0 8 -6 8 -13 0 -7 9 -18 20 -25 11 -7 20 -8 20 -3 0 17 -73 151 -82 151 -4 0 -8 5 -8 11 0 15 -130 195 -180 249 -119 128 -160 167 -225 215 -22 17 -42 33 -45 36 -13 15 -154 99 -225 133 -114 55 -131 62 -215 85 -41 12 -89 26 -105 31 -134 43 -488 67 -750 51 -105 -6 -226 -11 -270 -11 -74 0 -197 18 -237 35 -10 4 -18 3 -18 -3z"/>
 <path d="M5685 8424 c-98 -6 -255 -24 -335 -39 -262 -50 -293 -57 -375 -80 -33 -9 -75 -21 -92 -26 -76 -21 -102 -29 -169 -53 -189 -66 -527 -221 -606 -277 -14 -11 -29 -19 -32 -19 -9 0 -171 -104 -174 -112 -2 -5 -8 -8 -14 -8 -18 0 -221 -150 -347 -258 -154 -130 -357 -334 -457 -459 -21 -26 -41 -50 -44 -53 -6 -6 -129 -172 -183 -246 -20 -29 -37 -55 -37 -59 0 -3 -11 -21 -25 -39 -14 -18 -25 -38 -25 -44 0 -7 -3 -12 -8 -12 -7 0 -10 -4 -46 -77 -11 -21 -23 -40 -26 -43 -3 -3 -39 -72 -79 -155 -70 -144 -87 -180 -109 -235 -5 -14 -21 -54 -35 -90 -15 -36 -36 -96 -47 -135 -12 -38 -26 -81 -32 -95 -6 -14 -14 -41 -19 -60 -4 -19 -13 -53 -19 -75 -43 -157 -83 -370 -105 -568 -28 -254 -16 -727 25 -958 60 -337 153 -665 249 -874 10 -22 28 -62 40 -90 12 -27 26 -57 31 -65 5 -8 19 -35 30 -60 11 -25 27 -56 35 -70 7 -14 22 -41 31 -60 10 -19 20 -37 23 -40 7 -6 16 -21 62 -100 42 -73 192 -291 219 -319 8 -9 26 -32 40 -51 13 -19 32 -44 42 -55 9 -11 36 -42 60 -70 107 -126 389 -395 506 -484 26 -19 49 -38 52 -41 12 -15 210 -150 219 -150 6 0 11 -4 11 -10 0 -5 5 -10 11 -10 6 0 25 -11 43 -25 18 -14 37 -25 42 -25 6 0 15 -5 22 -12 30 -30 376 -206 487 -248 33 -12 74 -28 90 -35 65 -29 224 -81 355 -115 25 -7 65 -18 90 -25 25 -7 74 -18 110 -25 36 -6 85 -15 110 -20 145 -28 271 -43 280 -34 5 5 11 36 12 69 l3 60 -45 2 c-79 4 -408 67 -520 100 -170 49 -255 76 -265 84 -5 5 -15 9 -23 9 -39 0 -369 151 -552 252 -55 31 -225 139 -246 156 -5 5 -20 14 -31 21 -12 6 -27 17 -35 24 -7 7 -38 30 -68 52 -30 22 -57 42 -60 45 -3 3 -23 19 -44 36 -40 29 -83 67 -181 156 l-52 48 201 205 c111 113 205 205 209 205 5 0 29 -20 55 -44 64 -61 99 -90 167 -140 22 -17 42 -33 45 -37 7 -10 79 -59 86 -59 3 0 12 -6 19 -12 33 -30 45 -38 55 -38 5 0 10 -4 10 -8 0 -5 10 -14 23 -20 12 -6 40 -23 62 -37 22 -14 48 -28 58 -31 9 -4 17 -10 17 -15 0 -5 9 -9 20 -9 24 0 18 16 -25 65 -30 34 -59 87 -68 126 -5 18 -35 48 -99 95 -51 37 -107 79 -123 93 -17 14 -48 40 -69 56 -21 17 -60 50 -86 75 l-48 46 119 124 c65 69 115 128 111 131 -4 4 -27 14 -52 23 l-45 15 40 1 c45 0 165 -63 165 -87 0 -7 4 -13 8 -13 18 0 57 -88 63 -141 3 -31 23 -92 43 -136 20 -45 40 -103 45 -130 9 -46 18 -72 44 -133 12 -27 95 -149 112 -165 6 -5 23 -26 37 -45 100 -137 239 -234 398 -279 138 -40 198 -60 267 -92 37 -17 77 -34 88 -38 11 -5 31 -13 45 -18 82 -34 108 -43 130 -45 l25 -3 2 225 2 225 -79 39 c-44 21 -80 42 -80 47 0 5 -6 9 -12 9 -13 0 -158 143 -158 155 0 9 -123 125 -132 125 -4 0 -13 6 -20 13 -21 20 -109 81 -163 112 -27 15 -52 31 -55 35 -3 3 -12 9 -20 13 -8 4 -33 18 -55 31 -133 83 -287 146 -355 146 -27 0 -45 7 -65 28 -34 34 -115 146 -115 160 0 5 -7 15 -15 22 -8 7 -15 17 -15 23 0 7 4 7 12 -1 18 -18 30 -15 65 18 l31 30 54 -48 c29 -26 62 -55 73 -65 32 -30 204 -151 277 -196 80 -48 291 -151 310 -151 8 0 18 -4 24 -8 12 -11 78 -34 184 -65 114 -33 122 -35 219 -53 99 -17 101 -16 101 66 l0 55 -116 23 c-138 27 -269 66 -364 110 -25 11 -65 28 -90 38 -25 9 -52 23 -61 31 -8 7 -19 13 -24 13 -21 0 -292 172 -315 199 -3 3 -23 19 -45 36 -22 16 -60 48 -84 71 l-44 42 179 180 c98 100 194 196 213 215 l33 35 -31 45 c-17 25 -31 49 -31 53 0 4 -6 15 -13 23 -8 9 -23 41 -34 71 -61 161 -80 319 -59 480 26 199 95 340 230 475 91 90 172 147 286 202 48 24 83 48 91 63 8 14 30 48 50 77 l36 52 34 -35 c36 -37 41 -38 137 -18 51 10 50 29 -7 85 -28 27 -51 53 -51 57 0 4 29 25 65 47 l65 40 0 68 c0 52 -3 67 -15 67 -15 0 -126 -50 -135 -61 -3 -3 -20 -14 -37 -24 -18 -11 -33 -23 -33 -27 0 -4 -4 -8 -9 -8 -17 0 -420 412 -415 424 2 6 21 22 41 36 20 14 42 30 48 37 18 17 144 93 155 93 6 0 10 5 10 10 0 6 7 10 15 10 19 0 19 30 1 72 -8 18 -17 41 -20 51 -6 17 -12 15 -74 -19 -90 -49 -198 -121 -227 -150 -13 -13 -28 -24 -33 -24 -6 0 -12 -7 -16 -15 -4 -10 -69 49 -217 197 l-211 213 43 38 c24 21 73 59 109 84 36 26 67 50 70 53 5 6 124 81 195 123 27 16 71 37 180 87 125 57 316 112 508 145 l97 17 0 64 c0 34 -4 65 -8 68 -5 3 -42 -2 -83 -10 -41 -8 -101 -19 -134 -25 -98 -19 -202 -47 -260 -70 -11 -4 -31 -11 -45 -14 -92 -25 -328 -143 -469 -236 -90 -59 -117 -73 -119 -60 -2 9 -10 31 -19 49 l-15 34 -108 -7 -107 -7 -44 47 -44 47 -80 -6 -80 -7 -49 52 -50 52 40 35 c21 19 57 50 78 70 22 19 62 51 90 71 28 19 56 40 62 46 6 6 37 28 70 50 32 22 61 43 62 48 2 4 8 7 13 7 5 0 34 16 65 36 81 52 263 143 374 188 52 21 104 42 115 46 158 65 468 137 665 155 41 4 81 11 88 17 7 6 12 35 12 70 l0 59 -72 -6 c-115 -9 -288 -37 -383 -61 -123 -32 -142 -37 -220 -61 -86 -26 -146 -48 -265 -95 -86 -35 -333 -159 -338 -170 -2 -5 -8 -8 -13 -8 -6 0 -22 -8 -37 -19 -15 -10 -49 -32 -77 -49 -27 -17 -55 -35 -60 -40 -6 -5 -24 -17 -40 -28 -17 -10 -35 -23 -41 -29 -6 -5 -27 -21 -47 -35 -20 -14 -37 -28 -37 -32 0 -5 -5 -8 -10 -8 -10 0 -55 -37 -113 -92 -16 -16 -31 -28 -34 -28 -3 0 -14 -10 -24 -22 l-19 -21 -205 204 c-113 112 -205 209 -205 215 0 9 117 124 127 124 2 0 15 11 27 24 26 25 202 161 244 188 15 9 32 20 37 25 25 20 205 133 255 159 30 16 57 32 60 35 6 7 255 129 263 129 4 0 30 11 59 24 29 13 80 34 113 46 33 12 71 26 85 32 30 12 89 31 150 48 25 6 56 16 69 22 24 9 66 19 156 37 22 5 85 17 140 29 404 82 958 81 1345 -2 36 -7 101 -21 145 -30 44 -9 100 -23 125 -31 25 -8 81 -26 125 -39 44 -14 112 -37 150 -51 39 -15 82 -30 96 -35 14 -4 34 -12 45 -18 10 -6 37 -18 59 -27 49 -21 204 -94 225 -105 8 -5 37 -21 65 -36 27 -14 85 -48 128 -75 43 -27 80 -49 82 -49 7 0 169 -115 243 -171 85 -65 140 -111 209 -174 31 -27 65 -58 76 -68 20 -17 17 -21 -190 -228 l-210 -211 -39 38 c-22 22 -69 63 -104 92 -36 29 -74 61 -85 70 -11 9 -60 44 -110 79 -49 35 -95 67 -102 73 -7 5 -15 10 -19 10 -3 0 -20 10 -37 23 -38 27 -48 32 -212 117 -327 168 -695 276 -1044 305 -40 4 -79 9 -87 12 -11 4 -14 -9 -14 -65 l0 -70 33 -6 c17 -3 57 -8 87 -11 135 -14 322 -48 371 -69 69 -29 89 -82 89 -237 0 -241 -70 -427 -215 -573 -38 -39 -91 -83 -121 -102 -16 -10 -31 -21 -34 -24 -7 -7 -44 -28 -123 -68 l-67 -35 2 -170 3 -171 30 -9 c17 -4 44 -12 60 -17 207 -58 441 -176 533 -268 139 -139 197 -337 158 -537 -46 -236 -186 -397 -466 -532 -58 -28 -123 -56 -145 -63 -37 -12 -89 -33 -125 -50 -9 -4 -15 -20 -14 -36 1 -16 5 -158 9 -316 5 -200 11 -288 19 -288 14 0 120 53 124 63 2 4 35 7 73 7 62 0 69 -2 69 -19 0 -11 -9 -23 -20 -26 -13 -4 -20 -15 -20 -30 0 -13 -6 -25 -12 -28 -9 -3 -2 -20 22 -53 56 -79 72 -94 98 -88 28 8 28 21 0 45 -28 25 -21 30 27 19 22 -5 67 -10 100 -12 59 -3 60 -3 133 -76 40 -40 70 -78 66 -84 -15 -25 -133 17 -134 48 0 15 -119 29 -132 16 -32 -32 49 -85 93 -61 17 9 21 7 26 -10 3 -11 18 -26 34 -33 30 -13 37 -36 17 -56 -9 -9 -5 -14 20 -23 17 -6 47 -19 67 -29 l36 -19 40 36 40 37 209 -209 c197 -197 208 -210 193 -227 -15 -16 -15 -20 0 -35 19 -23 87 -154 87 -170 0 -28 26 -11 50 32 l26 45 62 -63 63 -63 -21 -26 c-28 -36 -26 -58 5 -58 14 0 25 -5 25 -12 0 -10 -40 -68 -65 -94 -5 -6 -21 -27 -35 -47 -14 -20 -28 -37 -32 -37 -5 0 -8 -47 -8 -104 0 -153 -38 -293 -119 -440 -41 -75 -42 -80 -25 -93 10 -7 22 -13 28 -13 5 0 18 -7 28 -17 19 -17 30 -12 278 118 30 16 82 58 115 93 51 53 63 73 79 132 11 38 20 84 20 102 0 27 4 32 23 32 12 0 39 8 58 17 29 14 36 22 32 40 -2 13 -3 23 -1 23 9 0 374 -370 374 -378 0 -5 -28 -34 -61 -63 -34 -30 -74 -65 -88 -79 -22 -22 -48 -44 -141 -117 -75 -60 -180 -132 -360 -248 -70 -46 -308 -169 -420 -218 -113 -49 -184 -77 -196 -77 -8 0 -22 -4 -32 -9 -27 -14 -93 -38 -142 -51 -25 -7 -56 -16 -70 -20 -25 -8 -111 -30 -185 -48 -22 -6 -71 -15 -110 -22 -38 -6 -101 -18 -139 -26 -38 -8 -88 -14 -112 -14 -23 0 -54 -4 -67 -9 -23 -9 -24 -12 -15 -67 5 -31 11 -60 13 -64 3 -4 26 -6 52 -3 43 4 80 10 278 44 85 15 153 30 205 44 25 7 68 18 95 25 120 30 339 109 505 182 58 26 279 135 305 151 11 7 43 27 72 45 30 17 58 32 63 32 6 0 10 5 10 10 0 6 4 10 9 10 8 0 100 57 127 79 5 4 20 13 31 20 12 6 27 17 35 24 7 7 38 30 68 52 30 22 57 42 60 45 3 3 23 19 45 36 21 16 47 36 55 44 9 8 50 44 91 80 139 122 294 287 448 475 75 93 301 434 301 455 0 6 3 10 8 10 4 0 12 10 18 23 6 12 36 72 67 132 68 134 110 227 128 280 7 22 17 45 21 50 11 17 97 280 125 385 39 148 57 236 73 353 5 38 12 72 14 76 14 22 36 357 36 536 0 242 -19 446 -61 675 -28 147 -84 367 -115 450 -7 19 -18 53 -25 75 -10 34 -63 176 -89 240 -21 48 -162 335 -190 385 -41 71 -93 154 -101 160 -3 3 -12 16 -19 30 -13 26 -149 221 -160 230 -3 3 -19 23 -35 45 -17 22 -32 42 -35 45 -3 3 -30 34 -60 70 -64 75 -186 204 -249 264 -24 22 -53 50 -65 61 -23 22 -127 111 -165 141 -13 11 -28 24 -35 29 -6 6 -29 24 -51 40 -22 17 -49 38 -59 47 -11 10 -28 20 -38 24 -10 3 -18 10 -18 15 0 5 -5 9 -10 9 -10 0 -22 8 -55 38 -7 6 -16 12 -20 12 -5 0 -100 61 -122 80 -6 5 -40 25 -75 43 -35 19 -98 53 -141 76 -43 23 -87 46 -98 51 -10 6 -28 15 -39 20 -11 6 -26 10 -34 10 -8 0 -16 4 -18 8 -1 4 -34 21 -73 36 -38 16 -83 34 -100 41 -16 7 -41 18 -55 23 -14 6 -47 18 -75 26 -27 8 -69 22 -91 30 -148 54 -479 126 -719 156 -88 11 -552 21 -670 14z m-2173 -1340 c68 -69 158 -162 202 -205 l78 -79 -60 -64 c-33 -35 -72 -81 -88 -103 -16 -21 -34 -42 -40 -48 -31 -30 -144 -187 -179 -248 -26 -48 -45 -58 -45 -25 0 41 -12 50 -51 37 -41 -14 -60 -33 -79 -76 -8 -18 -18 -33 -22 -33 -5 0 -8 -4 -8 -9 0 -23 -47 -81 -70 -87 -39 -11 -70 -53 -70 -96 0 -39 -15 -49 -37 -27 -9 9 -24 8 -59 -2 -40 -12 -50 -20 -65 -54 l-18 -40 0 53 c-1 28 -5 52 -10 52 -11 0 -71 -70 -71 -83 0 -4 -10 -21 -22 -37 -26 -36 -63 -42 -53 -9 4 13 1 25 -9 32 -14 11 -14 17 3 67 10 30 38 92 61 138 44 83 46 98 13 88 -29 -9 -84 -109 -151 -274 -49 -119 -65 -172 -73 -238 -6 -47 -8 -91 -5 -97 25 -51 49 -74 100 -100 l58 -29 26 25 c21 22 23 28 13 41 -15 18 -11 21 57 30 40 6 42 5 32 -13 -5 -11 -15 -23 -20 -26 -26 -16 6 -20 87 -12 63 7 94 15 109 28 25 24 38 24 30 2 -10 -26 -42 -150 -54 -213 -34 -170 -41 -213 -51 -291 -6 -47 -11 -122 -11 -167 l0 -82 -295 0 -295 0 0 99 c0 112 26 323 69 551 5 25 21 90 36 145 15 55 30 114 34 130 5 17 23 73 40 125 28 81 47 133 91 245 5 11 11 27 14 35 3 8 10 22 15 30 5 8 37 71 71 140 34 69 77 154 97 190 56 104 233 361 312 455 9 11 39 47 66 80 68 81 157 175 166 175 4 0 63 -57 131 -126z m5042 73 c22 -24 61 -67 86 -96 25 -29 50 -58 55 -65 6 -6 24 -29 40 -51 17 -22 36 -46 43 -53 6 -8 26 -35 44 -60 17 -26 35 -49 38 -52 4 -3 15 -20 25 -37 11 -18 23 -33 27 -33 4 0 8 -5 8 -11 0 -6 11 -25 25 -43 14 -18 25 -36 25 -39 0 -4 16 -31 35 -61 19 -30 35 -58 35 -61 0 -4 10 -21 22 -38 54 -76 182 -359 258 -572 21 -59 27 -79 50 -160 6 -22 15 -53 19 -70 34 -121 43 -160 56 -235 8 -47 21 -121 29 -165 21 -116 36 -268 36 -362 l0 -83 -295 0 -295 0 0 58 c0 86 -32 343 -57 452 -30 136 -36 158 -70 270 -32 107 -79 235 -125 340 -31 70 -102 214 -109 220 -3 3 -9 12 -12 20 -4 8 -18 33 -32 55 -14 22 -28 47 -32 55 -4 8 -17 29 -30 46 -13 17 -23 36 -23 42 0 7 -4 12 -8 12 -4 0 -16 15 -27 33 -10 17 -24 37 -29 43 -6 6 -22 27 -36 47 -14 20 -28 37 -32 37 -5 0 -8 6 -8 14 0 8 -3 16 -8 18 -4 2 -25 25 -47 53 -22 27 -64 74 -93 104 l-53 55 208 208 c114 114 210 208 212 208 2 0 22 -19 45 -43z m-1084 -37 c3 -3 32 -23 65 -45 64 -42 165 -117 187 -138 7 -7 22 -19 34 -27 46 -32 134 -114 132 -122 -6 -15 -402 -408 -412 -408 -6 0 -28 16 -49 36 -29 28 -36 41 -31 57 8 28 22 37 55 37 18 0 40 15 73 50 25 27 46 52 46 56 0 12 -41 74 -49 74 -5 0 -23 28 -42 63 -52 96 -52 96 -21 110 57 25 57 64 1 115 -37 35 -39 40 -29 64 10 21 8 32 -9 68 -12 24 -21 45 -21 47 0 4 62 -29 70 -37z m-3490 -506 c0 -1 -32 -21 -72 -44 -67 -40 -73 -42 -97 -29 -14 8 -26 21 -26 28 0 7 25 39 55 72 l55 59 42 -42 c24 -23 43 -43 43 -44z m4135 -64 c17 -19 44 -53 60 -75 17 -22 33 -41 38 -43 4 -2 7 -10 7 -18 0 -8 3 -14 8 -14 4 0 27 -30 52 -67 25 -38 48 -69 53 -71 4 -2 7 -7 7 -11 0 -4 23 -46 51 -92 55 -92 179 -342 179 -362 0 -7 4 -17 9 -22 9 -9 70 -188 100 -290 25 -85 59 -243 70 -320 6 -44 16 -112 21 -152 6 -39 10 -101 10 -137 l0 -66 -295 0 -295 0 0 33 c0 55 -32 286 -52 367 -45 189 -151 474 -208 560 -5 8 -18 32 -27 53 -10 20 -21 37 -25 37 -5 0 -8 5 -8 11 0 6 -11 25 -25 43 -14 18 -25 36 -25 40 0 9 -88 133 -110 156 -8 9 -33 38 -55 65 -22 26 -50 57 -63 69 l-23 20 88 88 c47 48 90 85 94 82 4 -2 10 -30 14 -62 3 -31 10 -74 16 -95 9 -34 13 -38 32 -32 12 3 37 10 55 15 42 10 46 14 34 36 -7 12 -4 22 9 35 9 9 21 39 24 66 4 26 11 64 16 83 11 45 12 110 0 110 -23 0 -19 34 6 65 l28 33 50 -52 c28 -28 64 -67 80 -86z m-3504 -570 c107 -110 195 -204 197 -209 2 -5 -14 -26 -34 -47 -20 -22 -49 -58 -65 -81 -16 -23 -35 -47 -42 -55 -7 -7 -20 -28 -28 -45 -7 -18 -16 -33 -20 -33 -8 0 -103 -195 -131 -270 -14 -36 -30 -87 -37 -115 -7 -27 -16 -66 -21 -85 -5 -19 -14 -79 -21 -132 l-12 -98 -39 0 c-36 0 -52 14 -26 22 10 4 10 19 0 76 -6 40 -12 106 -12 147 0 41 -4 75 -8 75 -15 0 -65 -108 -56 -122 5 -7 16 -44 25 -82 25 -102 16 -116 -71 -116 -62 0 -68 2 -78 25 -10 21 -18 25 -56 25 -44 0 -46 1 -57 38 -9 30 -8 45 4 73 12 29 12 40 0 73 -15 45 -17 41 25 59 26 10 41 31 77 100 39 77 44 91 39 134 -5 41 -1 57 27 108 29 53 34 75 44 191 7 71 17 139 23 150 45 83 51 108 44 187 -5 42 -6 81 -2 86 11 19 105 121 111 121 3 0 93 -90 200 -200z m2917 142 c23 -27 52 -62 64 -78 12 -16 26 -30 30 -32 5 -2 8 -8 8 -12 0 -5 11 -21 25 -36 14 -15 25 -33 25 -40 0 -7 4 -14 8 -16 13 -5 97 -144 146 -243 65 -131 103 -227 136 -345 6 -25 18 -63 25 -85 7 -22 18 -71 24 -110 6 -38 16 -97 21 -129 6 -33 10 -88 10 -123 l0 -63 -219 0 -219 0 36 75 c28 56 43 77 62 82 40 11 119 8 132 -5 22 -22 46 -13 57 19 18 51 -19 76 -71 48 -31 -17 -35 -1 -10 44 26 48 26 49 -70 72 -38 9 -81 23 -96 31 -26 14 -112 13 -165 -3 -16 -4 -17 -2 -9 14 12 23 -20 68 -42 60 -9 -4 -17 1 -20 11 -3 10 -20 23 -36 29 -19 7 -36 24 -46 45 -8 18 -21 42 -27 53 -39 66 -62 101 -71 107 -6 4 -7 11 -2 15 5 4 10 4 13 -2 13 -34 21 -38 51 -26 19 8 35 24 41 43 15 44 14 140 -3 179 -10 23 -11 39 -5 52 8 13 2 35 -21 84 -17 36 -38 72 -46 80 -19 19 -18 26 6 48 19 17 20 17 39 -6 11 -13 20 -30 21 -36 0 -7 4 -13 8 -13 5 0 16 -16 25 -35 9 -19 21 -35 27 -35 5 0 10 2 10 4 0 2 11 47 25 101 22 87 23 101 11 136 -13 37 -12 40 12 64 13 14 28 25 31 25 4 0 26 -22 49 -48z m-383 -81 c6 -10 -42 -48 -90 -71 -16 -8 -51 -30 -76 -47 -26 -18 -50 -33 -55 -33 -11 0 -74 53 -74 63 0 4 8 7 18 7 10 0 37 16 60 36 35 30 45 33 62 24 11 -6 25 -8 31 -5 8 6 88 30 111 34 4 0 9 -3 13 -8z m-1805 -782 c0 -3 -11 -19 -25 -35 -14 -16 -28 -37 -31 -46 -3 -10 -9 -18 -14 -18 -4 0 -15 -18 -24 -41 -19 -48 -31 -44 -39 13 -4 29 -14 50 -32 66 -14 12 -24 26 -21 31 3 5 -13 19 -35 30 -23 12 -42 21 -43 19 -1 -2 -10 -22 -21 -46 -20 -47 -16 -56 32 -69 l32 -8 -40 -53 -41 -53 -21 27 c-14 19 -20 39 -18 65 2 42 -6 47 -41 27 -46 -27 -57 -42 -52 -65 8 -30 -31 -65 -63 -58 -14 3 -43 -6 -76 -25 -35 -20 -68 -30 -94 -30 -23 0 -43 -3 -45 -7 -2 -5 -17 -20 -34 -36 l-30 -27 12 67 c49 255 153 469 329 671 l20 22 207 -207 c115 -114 208 -211 208 -214z m-1958 300 l68 -22 0 -134 0 -135 37 -46 c20 -26 42 -51 48 -57 36 -34 85 -116 85 -143 0 -26 5 -32 35 -42 l35 -12 0 -79 0 -79 -300 0 -300 0 5 88 c8 120 24 254 40 332 33 156 57 258 73 303 16 47 16 47 61 47 25 0 76 -10 113 -21z m586 -504 c27 -43 28 -57 2 -80 -27 -24 -25 -47 11 -142 8 -23 7 -23 -71 -23 l-80 0 0 70 c0 38 5 101 12 140 l12 70 46 0 c40 0 47 -4 68 -35z m-298 -387 c0 -26 30 -304 36 -333 3 -16 12 -62 20 -102 8 -40 18 -82 23 -95 5 -13 15 -43 21 -68 21 -74 41 -134 49 -145 4 -5 13 -28 20 -50 27 -79 155 -327 172 -333 5 -2 9 -8 9 -14 0 -6 16 -33 35 -59 19 -27 35 -53 35 -58 0 -5 3 -11 8 -13 4 -1 20 -21 37 -43 35 -48 48 -63 97 -118 37 -41 48 -67 29 -67 -19 0 -22 -40 -6 -70 9 -18 14 -34 11 -38 -3 -3 -11 9 -17 26 -6 18 -14 32 -18 32 -7 0 -2 -37 16 -122 5 -27 4 -27 -28 -18 -50 15 -122 12 -146 -5 -11 -8 -64 -58 -116 -111 l-95 -96 -29 28 c-16 16 -53 58 -82 94 -29 36 -60 74 -70 85 -9 11 -28 36 -41 55 -13 19 -27 37 -30 40 -7 7 -103 150 -116 175 -6 11 -28 49 -49 85 -48 84 -155 306 -155 323 0 7 -4 17 -9 22 -13 15 -86 237 -111 340 -12 50 -26 108 -32 130 -21 80 -58 389 -58 483 l0 52 295 0 c229 0 295 -3 295 -12z m412 -41 c4 -31 17 -61 39 -88 28 -36 31 -44 20 -61 -13 -20 0 -50 95 -225 l29 -53 55 0 c48 0 60 -5 95 -35 22 -19 47 -35 57 -35 18 0 78 -31 78 -42 0 -3 -21 0 -47 8 -51 16 -93 18 -93 6 0 -12 69 -76 75 -70 3 3 27 0 52 -6 46 -12 72 -38 89 -88 4 -10 10 -18 15 -18 5 0 9 -5 9 -11 0 -14 87 -138 122 -172 15 -15 28 -31 28 -35 0 -4 -94 -101 -208 -215 l-208 -207 -39 47 c-22 26 -48 55 -57 64 -9 10 -42 55 -73 101 -30 46 -59 88 -64 94 -5 6 -29 46 -53 90 -161 286 -253 590 -274 902 l-7 103 129 -3 129 -3 7 -48z m4698 -29 c0 -136 -26 -334 -66 -508 -34 -146 -44 -180 -60 -218 -8 -18 -14 -39 -14 -46 0 -13 -25 -83 -54 -151 -7 -16 -18 -41 -23 -55 -36 -88 -37 -89 -110 -59 -18 7 -34 11 -36 9 -2 -3 -34 -41 -72 -85 -151 -177 -178 -205 -201 -205 -12 0 -45 -15 -72 -34 -28 -19 -76 -48 -106 -66 -60 -34 -62 -36 -44 -74 10 -23 8 -29 -12 -46 -18 -16 -37 -20 -89 -20 l-66 0 -80 80 -79 80 34 37 c19 21 38 39 43 41 4 2 7 8 7 13 0 6 10 20 23 32 12 13 40 49 61 80 39 56 56 64 56 26 0 -25 25 -35 45 -19 11 9 13 23 8 52 -5 37 -4 40 14 34 10 -3 27 0 38 8 18 13 18 14 -2 25 -15 7 -20 17 -16 32 3 12 0 24 -7 29 -20 12 18 62 42 54 31 -9 68 38 68 87 0 26 9 53 25 77 23 33 23 38 9 59 -14 22 -12 28 22 93 25 46 44 70 55 70 20 0 20 -8 -7 -165 -18 -102 -33 -159 -51 -195 -7 -14 -13 -31 -13 -37 0 -14 -89 -201 -105 -221 -5 -7 -16 -19 -22 -27 -7 -7 -13 -18 -13 -24 0 -6 -4 -11 -9 -11 -5 0 -12 -8 -15 -17 -3 -10 -17 -31 -31 -47 -28 -32 -33 -64 -11 -72 11 -4 146 80 146 91 0 2 -7 11 -15 19 -19 19 -16 26 64 140 57 80 74 118 106 226 23 81 55 249 55 295 0 50 -28 181 -46 216 -10 20 -11 39 -3 85 16 99 39 296 39 347 l0 47 295 0 295 0 0 -82z m-5820 -15 c0 -92 21 -288 40 -383 6 -30 16 -80 22 -110 21 -105 90 -344 117 -405 5 -11 15 -36 22 -55 29 -81 132 -298 183 -385 45 -78 173 -274 186 -285 3 -3 18 -23 35 -45 34 -46 161 -200 189 -228 18 -19 14 -24 -190 -229 l-209 -209 -50 53 c-53 57 -128 144 -166 193 -13 17 -27 32 -31 33 -5 2 -8 8 -8 13 0 6 -9 20 -21 32 -29 31 -200 290 -239 362 -18 33 -36 62 -39 65 -3 3 -17 30 -31 60 -13 30 -30 62 -37 71 -7 8 -13 18 -13 22 0 3 -16 41 -36 84 -39 86 -37 81 -87 208 -128 325 -210 716 -225 1068 l-7 157 298 0 297 0 0 -87z m1454 45 c3 -24 7 -70 8 -103 l3 -59 -63 -14 c-58 -13 -67 -13 -97 4 -29 15 -33 23 -38 73 -5 49 -3 61 21 98 l27 43 67 0 67 0 5 -42z m3639 -45 c-3 -49 -9 -112 -14 -141 l-11 -53 -24 26 c-13 14 -24 28 -24 31 0 7 -27 34 -34 34 -9 0 -7 -56 3 -82 35 -89 51 -165 42 -193 l-9 -30 -1 31 c-1 45 -22 81 -57 100 -18 10 -39 32 -47 49 -13 28 -22 33 -64 39 -27 3 -74 18 -103 33 l-53 26 26 21 c38 30 28 66 -19 66 -26 0 -43 10 -79 46 -25 25 -45 55 -45 65 0 18 12 19 258 19 l258 0 -3 -87z m1457 -10 c0 -110 -22 -325 -45 -453 -9 -47 -20 -107 -25 -135 -5 -27 -17 -77 -25 -110 -9 -33 -20 -76 -25 -95 -5 -19 -13 -51 -19 -70 -5 -19 -14 -52 -19 -73 -6 -21 -14 -43 -19 -50 -5 -7 -15 -32 -22 -57 -6 -25 -16 -54 -20 -65 -5 -11 -26 -60 -46 -110 -62 -150 -214 -448 -243 -477 -7 -7 -12 -18 -12 -25 0 -7 -4 -13 -10 -13 -5 0 -10 -5 -10 -10 0 -10 -56 -98 -80 -127 -5 -7 -10 -16 -10 -20 0 -5 -11 -20 -25 -35 -14 -15 -25 -32 -25 -38 0 -5 -3 -10 -7 -10 -5 0 -19 -17 -33 -37 -14 -20 -29 -41 -35 -47 -5 -6 -28 -34 -50 -61 -21 -28 -52 -63 -67 -80 -15 -16 -44 -49 -65 -73 l-38 -43 -205 206 c-113 114 -204 211 -203 216 2 5 20 27 42 49 21 22 53 59 71 83 18 23 54 59 79 79 70 57 113 100 141 141 14 20 28 37 33 37 4 0 7 4 7 10 0 5 19 37 43 72 56 83 64 97 85 138 9 19 23 41 30 49 7 7 10 22 6 35 -9 30 -13 32 -34 18 -27 -16 -25 -6 8 58 16 30 38 82 51 115 12 33 27 68 32 78 29 53 100 300 142 492 26 115 57 372 57 468 l0 67 295 0 295 0 0 -97z m-1650 -293 c5 0 10 -16 10 -35 0 -35 7 -45 63 -92 32 -27 33 -42 8 -114 -59 -170 -76 -197 -138 -230 -16 -8 -33 -18 -39 -24 -7 -5 -24 -19 -38 -29 -22 -16 -26 -27 -26 -67 0 -42 3 -49 19 -49 11 0 23 -4 26 -10 5 -8 -41 -87 -75 -127 -5 -7 -10 -17 -10 -23 0 -5 -4 -10 -8 -10 -4 0 -15 -12 -24 -27 -10 -16 -29 -41 -44 -58 -14 -16 -39 -45 -54 -64 l-29 -34 -205 206 c-181 181 -228 237 -198 237 4 0 30 29 57 65 34 45 55 65 71 65 15 0 21 -6 20 -17 -1 -13 8 -19 33 -21 47 -5 63 14 32 37 -20 15 -22 20 -9 27 8 5 39 38 69 74 90 110 87 107 102 86 20 -27 54 -13 62 26 5 21 3 33 -6 39 -22 14 -39 11 -39 -7 0 -8 -4 -12 -10 -9 -5 3 -10 12 -10 20 0 17 43 65 58 65 16 0 54 -58 61 -94 7 -31 29 -48 81 -61 21 -5 35 4 83 50 31 30 57 60 57 65 0 5 -9 14 -20 20 -11 6 -20 21 -21 33 0 12 -8 45 -17 72 l-17 50 30 10 c26 9 33 7 57 -17 15 -16 32 -28 38 -28z m-860 -232 c0 -7 -7 -22 -15 -32 -22 -29 -18 -45 10 -52 17 -4 32 -1 44 10 23 21 28 20 41 -3 12 -23 -13 -71 -67 -130 l-33 -36 -23 25 c-12 14 -28 50 -35 80 l-13 55 31 25 c34 28 38 40 13 40 -14 0 -12 4 7 14 32 18 40 19 40 4z m-2206 -1707 c10 -4 50 -38 87 -77 74 -74 74 -82 -2 -83 -34 -1 -37 2 -80 76 -24 42 -45 80 -47 85 -4 10 16 9 42 -1z"/>
 <path d="M2972 6453 c-40 -60 -102 -155 -102 -159 0 -8 29 -4 55 8 14 6 33 28 41 47 9 20 22 48 30 63 13 24 10 58 -5 58 -4 0 -12 -8 -19 -17z"/>
 <path d="M4279 5238 c-46 -92 -50 -105 -34 -118 12 -10 16 -9 21 4 3 9 17 16 30 16 16 0 24 6 24 18 0 10 5 23 11 29 5 5 9 30 7 54 -4 63 -27 62 -59 -3z"/>
 <path d="M4160 3055 c-23 -24 -29 -35 -18 -35 8 0 30 -3 48 -7 33 -6 33 -6 26 28 -10 50 -19 52 -56 14z"/>
 <path d="M7396 3783 c-10 -11 -7 -48 6 -61 7 -7 20 -12 30 -12 9 0 22 -9 28 -21 9 -17 8 -25 -6 -40 -31 -34 -17 -105 31 -155 15 -16 76 -44 94 -44 19 1 54 46 46 60 -3 6 -13 10 -21 10 -12 0 -13 4 -3 23 7 12 17 25 23 29 19 13 -9 30 -38 22 -14 -3 -26 -9 -26 -13 0 -4 -13 -15 -30 -24 -28 -17 -29 -17 -41 4 -9 18 -6 28 20 66 37 52 39 73 9 108 -22 25 -110 59 -122 48z"/>
 <path d="M5894 8133 c-35 -33 -45 -85 -54 -288 -14 -293 -32 -1607 -23 -1615 4 -4 40 -19 78 -35 39 -15 79 -31 90 -35 11 -5 33 -11 49 -15 l29 -6 -6 113 c-4 62 -12 410 -17 773 -11 717 -23 1001 -42 1055 -23 63 -68 86 -104 53z"/>
 <path d="M2836 8111 c-10 -16 -169 -88 -241 -109 -123 -37 -169 -50 -220 -62 -144 -33 -235 -57 -365 -97 -144 -44 -127 -37 -285 -109 -76 -34 -223 -127 -290 -184 -102 -85 -285 -290 -285 -318 0 -6 -3 -12 -7 -14 -11 -4 -63 -85 -63 -97 0 -5 -3 -11 -8 -13 -6 -3 -101 -189 -123 -243 -24 -60 -60 -158 -79 -220 -12 -38 -29 -88 -36 -110 -26 -76 -13 -109 19 -47 21 43 41 75 55 90 6 7 17 23 23 34 22 42 137 162 239 252 61 53 301 216 319 216 6 0 11 4 11 9 0 5 10 13 23 17 12 4 24 9 27 13 3 3 21 14 40 25 149 79 192 102 240 129 30 17 73 40 95 51 22 12 46 27 53 34 7 6 20 12 28 12 8 0 14 5 14 10 0 6 5 10 11 10 6 0 50 26 97 58 90 60 109 75 173 130 l38 33 -46 -93 c-51 -102 -55 -112 -73 -178 -7 -25 -16 -58 -21 -74 -5 -15 -16 -87 -25 -160 -13 -106 -15 -166 -8 -311 11 -223 11 -509 2 -552 -8 -35 3 -43 24 -18 7 9 19 22 26 30 6 7 12 16 12 19 0 3 15 29 33 58 42 65 121 219 161 311 38 88 45 105 65 167 63 191 88 304 131 600 35 241 70 369 141 515 39 79 47 94 82 147 9 14 17 31 17 37 0 13 -17 15 -24 2z"/>
 <path d="M9010 8108 c0 -7 17 -40 38 -73 98 -157 152 -313 191 -550 5 -33 17 -107 26 -165 30 -195 51 -295 81 -395 13 -44 29 -98 36 -120 6 -22 17 -51 24 -65 7 -14 22 -52 35 -85 12 -33 26 -64 30 -70 4 -5 31 -57 60 -115 29 -58 55 -107 58 -110 7 -6 25 -35 47 -75 9 -16 27 -43 40 -58 l24 -28 -3 168 c-1 92 0 299 2 458 5 327 0 375 -62 560 -12 37 -51 126 -78 179 -22 43 -20 42 50 -21 20 -18 39 -33 43 -33 4 0 13 -7 21 -15 15 -14 46 -35 177 -114 99 -59 169 -99 235 -132 33 -16 74 -38 90 -48 17 -10 57 -33 90 -51 144 -79 349 -210 375 -239 3 -4 23 -19 45 -36 22 -16 56 -45 76 -65 20 -19 45 -42 55 -52 48 -42 174 -206 174 -227 0 -6 5 -11 10 -11 6 0 10 -6 10 -13 0 -14 32 -57 42 -57 7 0 -16 96 -30 130 -6 14 -18 52 -28 85 -44 156 -153 387 -253 540 -121 185 -313 372 -481 468 -73 42 -206 104 -270 127 -19 6 -44 16 -55 20 -19 8 -132 41 -245 73 -30 8 -100 25 -155 37 -55 12 -118 28 -140 35 -22 7 -60 18 -85 25 -96 27 -262 98 -275 119 -9 15 -25 14 -25 -1z"/>
 <path d="M6585 7268 c-10 -33 -58 -130 -72 -146 -7 -7 -13 -18 -13 -23 0 -26 -172 -178 -259 -229 l-93 -54 4 -117 c1 -65 6 -121 11 -125 15 -15 179 87 246 154 93 93 143 172 177 279 19 61 32 283 16 283 -6 0 -14 -10 -17 -22z"/>
 <path d="M1985 7187 c-81 -83 -96 -95 -320 -243 -49 -32 -92 -62 -95 -65 -3 -3 -16 -12 -30 -19 -24 -12 -189 -128 -200 -140 -3 -3 -32 -25 -65 -50 -76 -56 -303 -281 -340 -337 -15 -24 -32 -43 -36 -43 -5 0 -9 -5 -9 -10 0 -6 -16 -33 -35 -60 -19 -27 -35 -54 -35 -59 0 -5 -3 -11 -8 -13 -10 -4 -106 -204 -122 -253 -7 -22 -16 -49 -20 -60 -15 -41 -33 -101 -42 -135 -34 -139 -73 -498 -56 -516 3 -3 30 43 59 103 29 59 55 110 58 113 4 3 26 35 50 72 23 37 46 68 49 70 4 2 25 26 47 53 22 28 51 62 65 77 65 68 262 279 311 332 30 33 68 73 84 90 17 17 50 56 75 86 25 30 47 57 51 60 32 27 225 304 274 395 34 63 49 79 36 40 -15 -46 -39 -206 -52 -350 -18 -201 6 -396 81 -670 4 -16 22 -75 39 -130 56 -178 59 -189 70 -240 5 -27 13 -76 16 -107 4 -32 10 -60 15 -63 10 -6 34 54 59 150 11 41 22 79 25 84 8 13 33 149 47 251 13 101 8 353 -10 510 -5 47 -19 168 -30 269 -12 101 -21 226 -21 277 0 119 27 337 60 489 19 86 20 95 13 94 -5 0 -31 -24 -58 -52z"/>
 <path d="M9823 7213 c2 -16 12 -66 21 -113 10 -47 24 -118 32 -159 19 -98 19 -477 0 -604 -32 -213 -41 -333 -41 -542 0 -249 6 -289 75 -540 38 -138 70 -181 70 -95 0 42 14 117 36 195 7 28 23 84 35 125 11 41 27 91 34 110 16 43 38 122 69 245 50 202 50 517 -1 751 -17 81 -14 109 7 67 8 -15 17 -30 20 -33 6 -6 25 -37 46 -75 17 -30 152 -225 163 -235 3 -3 24 -27 45 -55 22 -27 47 -57 55 -66 9 -9 41 -45 71 -80 30 -35 82 -91 115 -125 375 -385 526 -578 585 -748 10 -28 22 -49 27 -46 11 7 7 198 -6 276 -6 35 -16 97 -22 137 -6 39 -15 83 -19 97 -5 14 -16 52 -25 85 -38 137 -116 305 -204 440 -50 77 -171 224 -227 277 -20 18 -52 49 -72 68 -79 75 -347 280 -367 280 -3 0 -11 5 -18 10 -7 6 -84 59 -172 117 -168 111 -171 114 -268 206 -33 31 -63 57 -65 57 -2 0 -2 -12 1 -27z"/>
 <path d="M5663 6596 c-13 -6 -23 -14 -23 -18 0 -5 -5 -8 -11 -8 -25 0 -179 -136 -179 -159 0 -6 -4 -11 -8 -11 -21 0 -62 -135 -62 -203 0 -68 40 -187 62 -187 5 0 8 -5 8 -11 0 -15 64 -76 125 -119 89 -64 206 -115 410 -180 239 -76 300 -105 372 -176 43 -42 53 -59 58 -99 15 -99 -29 -163 -154 -225 l-71 -35 0 -145 c0 -80 3 -175 7 -212 6 -70 14 -79 51 -59 9 5 60 27 112 47 52 21 102 43 110 49 8 6 30 17 48 25 17 7 32 16 32 21 0 5 5 9 11 9 17 0 79 49 140 110 141 142 188 381 113 575 -22 59 -151 204 -181 205 -7 0 -13 4 -13 9 0 7 -133 76 -195 101 -41 17 -141 52 -175 61 -81 23 -98 29 -165 54 -117 44 -149 56 -177 65 -57 18 -155 70 -178 95 -25 27 -25 28 -25 228 0 125 -4 201 -10 202 -5 1 -20 -3 -32 -9z"/>
 <path d="M1474 6079 c-6 -8 -28 -49 -49 -91 -22 -43 -43 -78 -46 -78 -4 0 -17 -16 -29 -35 -12 -20 -27 -41 -34 -48 -7 -6 -40 -43 -73 -82 -33 -38 -87 -97 -119 -130 -52 -53 -120 -131 -180 -203 -10 -13 -27 -33 -36 -44 -10 -12 -18 -24 -18 -28 0 -3 -10 -17 -22 -29 -20 -22 -100 -158 -125 -211 -37 -81 -57 -139 -72 -200 -5 -25 -18 -76 -27 -115 -27 -110 -24 -440 5 -605 32 -184 36 -204 49 -225 10 -18 11 -16 12 17 0 51 31 213 52 273 17 49 61 159 68 170 4 6 35 64 70 130 34 66 68 127 74 135 7 8 18 29 26 45 8 17 17 32 20 35 22 22 198 380 234 474 48 128 83 226 92 261 6 22 10 -7 15 -100 11 -207 45 -393 97 -525 43 -108 142 -281 200 -350 12 -14 50 -64 84 -111 35 -47 73 -99 85 -115 12 -16 41 -62 64 -101 24 -40 46 -73 51 -73 4 0 8 64 8 143 0 196 -20 325 -87 557 -9 30 -19 62 -23 70 -5 8 -21 47 -36 85 -15 39 -47 113 -71 165 -24 52 -49 106 -55 120 -5 14 -14 32 -19 40 -5 8 -12 22 -15 30 -3 8 -10 24 -14 35 -9 21 -56 154 -70 195 -4 14 -13 48 -20 75 -6 28 -16 68 -22 90 -6 22 -16 114 -22 204 -8 120 -14 160 -22 150z"/>
 <path d="M10380 6008 c0 -97 -23 -280 -45 -358 -39 -142 -49 -171 -85 -261 -35 -85 -54 -127 -95 -209 -38 -76 -138 -323 -156 -387 -53 -188 -69 -295 -76 -491 -7 -205 -2 -216 51 -119 16 28 40 66 53 83 13 17 23 36 23 42 0 6 4 12 8 14 5 2 33 37 62 78 30 41 57 77 61 80 14 11 129 180 141 206 6 16 17 36 24 44 7 8 28 52 47 97 59 141 106 361 108 506 1 89 15 228 18 177 0 -14 10 -50 22 -80 11 -30 29 -81 40 -114 31 -96 122 -292 199 -431 22 -38 47 -86 57 -105 10 -19 20 -37 23 -40 7 -7 25 -39 58 -100 36 -69 56 -104 62 -110 11 -11 87 -173 119 -255 26 -64 47 -164 56 -257 10 -106 18 -94 55 87 77 380 37 777 -103 1035 -51 92 -125 210 -147 230 -3 3 -22 26 -43 52 -21 26 -43 53 -50 60 -7 7 -57 63 -112 123 -55 61 -109 119 -120 130 -11 11 -38 43 -60 70 -22 28 -43 52 -47 53 -5 2 -8 8 -8 13 0 5 -9 20 -21 33 -21 25 -86 138 -96 169 -13 40 -23 12 -23 -65z"/>
 <path d="M5797 5483 c-4 -92 -12 -478 -18 -858 -6 -379 -12 -701 -12 -715 -2 -20 5 -27 38 -38 107 -37 288 -83 297 -74 4 4 3 158 -3 342 -5 184 -13 577 -18 874 -5 296 -13 542 -18 547 -8 8 -140 54 -198 69 -16 4 -37 11 -46 14 -14 6 -17 -13 -22 -161z"/>
 <path d="M6180 5405 c0 -100 1 -105 21 -105 27 0 86 36 99 60 19 36 11 63 -35 107 -25 24 -54 43 -65 43 -19 0 -20 -7 -20 -105z"/>
 <path d="M5615 4994 c-22 -8 -49 -18 -60 -20 -11 -3 -29 -9 -40 -14 -11 -4 -36 -14 -55 -21 -156 -57 -311 -153 -407 -251 -73 -73 -82 -85 -127 -170 -66 -124 -95 -290 -77 -440 16 -130 27 -170 77 -273 91 -188 222 -299 494 -417 92 -40 310 -107 495 -152 218 -54 224 -55 365 -97 58 -17 121 -35 140 -41 19 -5 39 -14 45 -19 5 -5 15 -9 22 -9 15 0 126 -49 133 -59 3 -4 20 -13 38 -20 17 -8 32 -17 32 -22 0 -5 5 -9 11 -9 6 0 16 -6 23 -12 7 -7 28 -27 47 -43 79 -70 120 -149 140 -268 15 -91 1 -190 -41 -282 -27 -61 -142 -195 -167 -195 -7 0 -13 -4 -13 -8 0 -11 -129 -75 -190 -95 -55 -18 -129 -35 -195 -45 l-50 -7 0 -63 c1 -34 2 -132 3 -218 l2 -156 53 7 c141 17 349 66 371 86 6 5 18 9 28 9 10 0 26 4 36 8 143 70 189 94 257 138 98 62 275 232 275 264 0 6 4 10 9 10 10 0 97 173 112 222 21 73 39 187 39 254 0 69 -20 224 -39 294 -13 52 -69 182 -86 200 -8 9 -15 22 -15 28 0 7 -4 12 -9 12 -5 0 -12 8 -15 18 -16 49 -217 225 -311 272 -16 8 -32 17 -35 20 -6 6 -47 25 -130 62 -57 25 -231 86 -310 108 -25 7 -58 16 -75 21 -16 5 -52 15 -80 23 -27 8 -75 20 -105 26 -80 17 -118 26 -185 44 -74 20 -128 34 -180 48 -22 6 -56 16 -75 23 -130 49 -177 69 -201 86 -15 10 -30 19 -33 19 -25 0 -129 109 -156 166 -34 69 -35 216 -1 286 36 74 145 171 242 214 l26 12 6 173 c10 252 9 289 -5 289 -7 -1 -31 -8 -53 -16z"/>
 <path d="M1250 4885 c-6 -14 -10 -34 -10 -44 0 -30 -128 -322 -150 -341 -3 -3 -14 -23 -24 -45 -10 -22 -31 -67 -46 -100 -69 -149 -80 -174 -80 -184 0 -5 -9 -31 -21 -58 -49 -113 -89 -333 -89 -489 1 -149 38 -369 80 -469 7 -16 16 -40 21 -52 19 -48 29 -71 69 -153 41 -84 60 -120 70 -130 3 -3 12 -18 20 -35 18 -37 88 -135 96 -135 4 0 3 10 -1 23 -44 147 -55 231 -55 436 0 106 4 221 10 255 5 33 14 99 20 146 6 47 17 117 25 155 12 67 21 120 44 265 6 36 17 103 26 150 8 47 15 114 16 150 1 36 4 76 8 90 l7 25 6 -30 c3 -16 11 -46 18 -65 7 -19 22 -60 33 -90 11 -30 33 -84 50 -120 16 -36 33 -74 38 -85 5 -11 19 -36 31 -55 11 -19 26 -44 32 -55 27 -49 90 -135 97 -135 5 0 9 -4 9 -10 0 -33 249 -275 453 -440 37 -30 177 -167 177 -173 0 -10 33 -47 42 -47 12 0 10 26 -6 62 -8 18 -24 65 -36 103 -12 39 -31 89 -41 112 -10 23 -19 45 -19 48 0 19 -163 349 -180 365 -3 3 -21 30 -40 60 -19 30 -40 61 -47 68 -7 8 -18 23 -24 34 -12 22 -77 109 -88 118 -3 3 -25 30 -47 60 -23 30 -52 66 -64 80 -12 14 -36 45 -53 70 -17 25 -36 50 -42 55 -6 6 -29 37 -51 70 -21 33 -45 66 -51 73 -7 7 -16 24 -19 38 -3 13 -10 24 -14 24 -5 0 -12 10 -16 23 -4 12 -10 24 -13 27 -10 8 -54 105 -86 190 -15 41 -31 84 -36 95 -4 11 -11 35 -14 52 -9 43 -23 50 -35 18z"/>
 <path d="M10595 4898 c-2 -7 -11 -35 -19 -63 -41 -139 -103 -278 -173 -388 -24 -37 -43 -70 -43 -73 0 -3 -6 -12 -12 -19 -30 -33 -38 -45 -38 -55 0 -5 -3 -10 -7 -10 -5 0 -19 -17 -33 -37 -14 -20 -30 -41 -35 -47 -6 -6 -24 -29 -40 -51 -17 -22 -32 -42 -35 -45 -8 -8 -52 -63 -80 -100 -37 -49 -79 -104 -88 -115 -5 -6 -17 -24 -28 -40 -10 -17 -21 -32 -24 -35 -12 -12 -111 -181 -151 -260 -33 -63 -86 -184 -103 -230 -8 -25 -29 -83 -46 -130 -58 -159 -62 -189 -18 -134 54 66 243 244 259 244 4 0 9 3 11 8 2 4 32 32 68 62 79 66 225 212 277 277 21 27 40 50 44 53 29 27 147 222 189 315 17 39 36 79 41 90 13 28 48 133 59 173 4 19 10 36 13 38 2 2 12 -62 21 -143 10 -82 22 -168 27 -193 8 -42 41 -228 60 -345 68 -412 73 -669 18 -882 -11 -40 -19 -81 -19 -90 1 -20 -3 -24 46 42 44 59 161 276 194 360 4 11 13 34 20 50 17 44 37 106 44 140 3 17 15 72 26 124 25 119 28 346 4 454 -28 131 -57 240 -70 266 -8 14 -14 34 -14 43 0 9 -4 20 -10 23 -5 3 -10 13 -10 22 0 16 -40 104 -117 258 -25 50 -65 128 -88 175 -41 81 -95 227 -95 256 0 18 -19 28 -25 12z"/>
 <path d="M5570 4363 c-62 -56 -100 -128 -100 -192 0 -63 50 -152 112 -197 73 -54 78 -48 78 107 l0 131 -30 28 c-16 15 -30 35 -30 44 0 9 14 28 30 43 20 17 30 36 30 55 0 42 -27 36 -90 -19z"/>
 <path d="M1340 3725 c0 -57 -4 -137 -9 -177 -57 -435 -35 -832 59 -1093 31 -87 87 -212 100 -225 6 -6 23 -33 56 -92 15 -27 30 -48 34 -48 4 0 19 -17 33 -39 33 -50 178 -195 228 -228 22 -14 39 -30 39 -34 0 -5 5 -9 10 -9 18 0 11 22 -25 76 -36 54 -92 175 -106 229 -50 196 -60 247 -79 395 -7 47 -18 130 -26 185 -8 55 -19 134 -25 175 -15 108 -40 241 -51 269 -7 20 -6 22 6 12 7 -6 19 -25 26 -41 7 -17 16 -30 21 -30 4 0 10 -8 13 -18 4 -10 14 -27 24 -38 9 -10 30 -37 46 -58 39 -53 189 -203 251 -251 28 -22 52 -42 55 -45 12 -14 179 -129 225 -155 28 -15 52 -31 55 -35 3 -3 19 -12 35 -21 17 -8 50 -27 75 -43 25 -16 61 -39 80 -51 104 -64 161 -106 217 -163 44 -44 63 -58 63 -45 0 18 -23 90 -39 121 -5 9 -13 28 -18 42 -39 100 -128 247 -201 333 -58 68 -183 185 -267 249 -16 12 -31 26 -33 30 -2 5 -8 8 -14 8 -8 0 -73 44 -88 60 -3 3 -39 30 -80 60 -189 138 -307 245 -394 355 -22 28 -45 55 -51 60 -6 6 -22 28 -35 50 -13 22 -27 42 -30 45 -6 5 -41 60 -67 105 -6 11 -30 57 -54 103 -23 45 -46 82 -50 82 -5 0 -9 -47 -9 -105z"/>
 <path d="M10475 3757 c-53 -111 -153 -270 -232 -368 -55 -69 -230 -235 -308 -294 -22 -16 -41 -33 -43 -37 -2 -4 -8 -8 -13 -8 -6 0 -22 -11 -37 -25 -15 -14 -32 -25 -39 -25 -6 0 -13 -3 -15 -8 -1 -4 -37 -32 -78 -62 -41 -30 -82 -60 -90 -67 -90 -72 -130 -107 -130 -114 0 -5 -5 -9 -11 -9 -12 0 -67 -56 -127 -130 -20 -25 -40 -46 -44 -48 -5 -2 -8 -8 -8 -14 0 -6 -11 -25 -24 -42 -54 -72 -153 -286 -171 -371 -7 -29 -5 -28 42 21 26 29 68 66 93 83 67 47 152 104 175 117 11 6 36 20 55 32 19 12 49 29 65 38 180 100 441 301 555 428 25 27 53 58 63 68 9 10 17 22 17 27 0 5 4 11 8 13 12 4 82 103 82 115 0 6 7 16 15 23 20 16 20 1 1 -66 -14 -52 -28 -134 -47 -274 -6 -47 -17 -130 -25 -185 -8 -55 -19 -134 -25 -175 -14 -100 -34 -188 -72 -325 -17 -60 -93 -217 -122 -250 -14 -17 -25 -33 -25 -37 0 -21 32 -2 107 61 138 119 255 266 336 426 53 106 106 260 125 365 6 30 16 82 22 115 21 103 24 433 7 606 -32 304 -39 408 -33 433 12 50 -19 27 -49 -37z"/>
 <path d="M5746 3063 c-4 -54 -11 -312 -17 -573 -20 -1011 -29 -1296 -37 -1330 -6 -19 -15 -69 -22 -110 -6 -41 -17 -97 -23 -125 -16 -74 -15 -389 2 -445 23 -76 33 -93 87 -146 62 -60 102 -74 211 -74 211 0 302 108 303 360 0 102 -15 227 -40 330 -5 19 -14 62 -20 95 -6 33 -16 80 -22 105 -5 25 -14 241 -19 480 -5 239 -13 638 -19 885 -5 248 -9 471 -10 498 0 42 -3 49 -27 58 -28 11 -185 53 -258 69 -22 5 -50 11 -61 15 -20 6 -22 2 -28 -92z"/>
 <path d="M6625 2718 c-60 -22 -128 -43 -150 -48 -22 -4 -65 -13 -95 -20 -30 -7 -73 -15 -95 -19 l-40 -6 3 -65 c2 -35 5 -67 8 -69 7 -8 184 27 279 54 64 19 191 60 233 77 29 11 32 16 27 43 -8 40 -37 95 -50 94 -5 -1 -59 -19 -120 -41z"/>
 <path d="M1807 2598 c21 -117 123 -398 173 -478 5 -8 21 -37 36 -65 14 -27 32 -57 40 -66 8 -8 14 -21 14 -27 0 -7 3 -12 8 -12 4 0 13 -12 19 -27 7 -16 23 -39 35 -53 13 -14 36 -43 52 -65 16 -22 88 -99 160 -171 126 -125 234 -210 361 -284 87 -51 255 -130 275 -130 6 0 47 -12 90 -26 94 -30 129 -30 91 1 -63 51 -181 177 -221 236 -24 35 -56 83 -72 106 -16 23 -36 57 -44 75 -8 18 -21 42 -27 53 -7 11 -23 38 -35 60 -12 22 -34 58 -47 80 -14 22 -28 47 -32 55 -6 15 -70 104 -102 143 -40 49 -120 123 -186 172 -22 17 -46 36 -53 43 -7 6 -17 12 -21 12 -4 0 -16 8 -27 18 -10 10 -34 27 -51 37 -18 11 -33 23 -33 27 0 4 -6 8 -13 8 -7 0 -24 11 -39 25 -15 14 -30 25 -33 25 -6 0 -75 49 -85 61 -3 3 -15 12 -28 21 -12 8 -55 44 -94 79 -39 35 -75 66 -79 67 -5 2 -9 10 -9 18 0 8 -7 14 -15 14 -11 0 -13 -8 -8 -32z"/>
 <path d="M10004 2576 c-64 -64 -123 -116 -134 -116 -5 0 -10 -4 -12 -8 -3 -8 -121 -92 -233 -167 -33 -22 -66 -46 -73 -53 -8 -6 -35 -26 -60 -44 -80 -54 -225 -208 -290 -307 -34 -52 -62 -100 -62 -107 0 -8 -4 -14 -10 -14 -5 0 -12 -11 -16 -25 -3 -14 -10 -25 -14 -25 -4 0 -10 -8 -13 -17 -9 -29 -143 -253 -156 -263 -4 -3 -22 -27 -40 -53 -30 -44 -114 -133 -172 -182 l-24 -20 27 -3 c26 -3 212 54 267 81 14 8 49 25 76 38 231 111 459 298 631 519 95 122 171 243 214 340 13 30 29 62 36 70 6 8 14 24 17 35 3 11 17 52 32 90 36 95 75 235 75 270 0 23 -11 17 -66 -39z"/>
 <path d="M7684 2031 c-39 -25 -80 -51 -90 -58 -18 -11 -17 -13 15 -42 l34 -30 50 25 c27 14 52 34 54 45 3 10 9 19 14 19 11 0 12 77 2 83 -5 2 -40 -17 -79 -42z"/>
 <path d="M6325 1471 c-35 -4 -50 -10 -50 -21 0 -11 15 -16 59 -18 33 -2 68 -10 80 -18 14 -10 47 -14 111 -13 91 1 115 5 149 25 16 10 16 14 5 32 -13 21 -20 22 -159 20 -80 0 -167 -4 -195 -7z"/>
 </g>

</svg>